<?xml version='1.0' encoding='UTF-8'?>
<svg height="165mm" version="1.1" viewBox="0 0 165 165" width="165mm" xmlns="http://www.w3.org/2000/svg"><rect fill="white" height="100%" width="100%" x="0" y="0" /><path d="M 100 50 L 100 55 L 105 55 L 105 50 z M 90 105 L 90 110 L 95 110 L 95 105 z M 80 25 L 80 30 L 85 30 L 85 25 z M 70 105 L 70 110 L 75 110 L 75 105 z M 20 120 L 20 125 L 25 125 L 25 120 z M 100 65 L 100 70 L 105 70 L 105 65 z M 90 40 L 90 45 L 95 45 L 95 40 z M 55 80 L 55 85 L 60 85 L 60 80 z M 80 80 L 80 85 L 85 85 L 85 80 z M 120 120 L 120 125 L 125 125 L 125 120 z M 110 40 L 110 45 L 115 45 L 115 40 z M 105 120 L 105 125 L 110 125 L 110 120 z M 140 40 L 140 45 L 145 45 L 145 40 z M 125 140 L 125 145 L 130 145 L 130 140 z M 125 65 L 125 70 L 130 70 L 130 65 z M 85 105 L 85 110 L 90 110 L 90 105 z M 30 130 L 30 135 L 35 135 L 35 130 z M 25 50 L 25 55 L 30 55 L 30 50 z M 20 70 L 20 75 L 25 75 L 25 70 z M 130 50 L 130 55 L 135 55 L 135 50 z M 125 50 L 125 55 L 130 55 L 130 50 z M 45 60 L 45 65 L 50 65 L 50 60 z M 40 20 L 40 25 L 45 25 L 45 20 z M 35 140 L 35 145 L 40 145 L 40 140 z M 75 45 L 75 50 L 80 50 L 80 45 z M 50 70 L 50 75 L 55 75 L 55 70 z M 45 110 L 45 115 L 50 115 L 50 110 z M 80 50 L 80 55 L 85 55 L 85 50 z M 90 110 L 90 115 L 95 115 L 95 110 z M 70 110 L 70 115 L 75 115 L 75 110 z M 95 75 L 95 80 L 100 80 L 100 75 z M 140 90 L 140 95 L 145 95 L 145 90 z M 85 55 L 85 60 L 90 60 L 90 55 z M 80 105 L 80 110 L 85 110 L 85 105 z M 100 130 L 100 135 L 105 135 L 105 130 z M 110 65 L 110 70 L 115 70 L 115 65 z M 20 40 L 20 45 L 25 45 L 25 40 z M 140 25 L 140 30 L 145 30 L 145 25 z M 125 80 L 125 85 L 130 85 L 130 80 z M 120 40 L 120 45 L 125 45 L 125 40 z M 85 120 L 85 125 L 90 125 L 90 120 z M 110 120 L 110 125 L 115 125 L 115 120 z M 120 135 L 120 140 L 125 140 L 125 135 z M 130 35 L 130 40 L 135 40 L 135 35 z M 40 70 L 40 75 L 45 75 L 45 70 z M 35 30 L 35 35 L 40 35 L 40 30 z M 30 50 L 30 55 L 35 55 L 35 50 z M 65 90 L 65 95 L 70 95 L 70 90 z M 135 70 L 135 75 L 140 75 L 140 70 z M 45 75 L 45 80 L 50 80 L 50 75 z M 65 35 L 65 40 L 70 40 L 70 35 z M 50 20 L 50 25 L 55 25 L 55 20 z M 45 140 L 45 145 L 50 145 L 50 140 z M 140 140 L 140 145 L 145 145 L 145 140 z M 90 95 L 90 100 L 95 100 L 95 95 z M 50 135 L 50 140 L 55 140 L 55 135 z M 120 115 L 120 120 L 125 120 L 125 115 z M 75 125 L 75 130 L 80 130 L 80 125 z M 70 135 L 70 140 L 75 140 L 75 135 z M 100 115 L 100 120 L 105 120 L 105 115 z M 85 70 L 85 75 L 90 75 L 90 70 z M 120 90 L 120 95 L 125 95 L 125 90 z M 110 70 L 110 75 L 115 75 L 115 70 z M 20 25 L 20 30 L 25 30 L 25 25 z M 135 115 L 135 120 L 140 120 L 140 115 z M 125 95 L 125 100 L 130 100 L 130 95 z M 85 135 L 85 140 L 90 140 L 90 135 z M 25 80 L 25 85 L 30 85 L 30 80 z M 60 80 L 60 85 L 65 85 L 65 80 z M 65 65 L 65 70 L 70 70 L 70 65 z M 135 65 L 135 70 L 140 70 L 140 65 z M 45 90 L 45 95 L 50 95 L 50 90 z M 35 110 L 35 115 L 40 115 L 40 110 z M 40 125 L 40 130 L 45 130 L 45 125 z M 65 115 L 65 120 L 70 120 L 70 115 z M 90 60 L 90 65 L 95 65 L 95 60 z M 50 100 L 50 105 L 55 105 L 55 100 z M 80 60 L 80 65 L 85 65 L 85 60 z M 120 100 L 120 105 L 125 105 L 125 100 z M 110 20 L 110 25 L 115 25 L 115 20 z M 105 60 L 105 65 L 110 65 L 110 60 z M 140 60 L 140 65 L 145 65 L 145 60 z M 95 85 L 95 90 L 100 90 L 100 85 z M 85 85 L 85 90 L 90 90 L 90 85 z M 120 35 L 120 40 L 125 40 L 125 35 z M 100 100 L 100 105 L 105 105 L 105 100 z M 30 110 L 30 115 L 35 115 L 35 110 z M 20 90 L 20 95 L 25 95 L 25 90 z M 125 125 L 125 130 L 130 130 L 130 125 z M 125 30 L 125 35 L 130 35 L 130 30 z M 35 75 L 35 80 L 40 80 L 40 75 z M 25 95 L 25 100 L 30 100 L 30 95 z M 60 65 L 60 70 L 65 70 L 65 65 z M 130 65 L 130 70 L 135 70 L 135 65 z M 30 80 L 30 85 L 35 85 L 35 80 z M 65 40 L 65 45 L 70 45 L 70 40 z M 50 90 L 50 95 L 55 95 L 55 90 z M 90 130 L 90 135 L 95 135 L 95 130 z M 80 30 L 80 35 L 85 35 L 85 30 z M 75 70 L 75 75 L 80 75 L 80 70 z M 20 125 L 20 130 L 25 130 L 25 125 z M 140 110 L 140 115 L 145 115 L 145 110 z M 120 125 L 120 130 L 125 130 L 125 125 z M 110 45 L 110 50 L 115 50 L 115 45 z M 105 75 L 105 80 L 110 80 L 110 75 z M 95 20 L 95 25 L 100 25 L 100 20 z M 140 45 L 140 50 L 145 50 L 145 45 z M 125 60 L 125 65 L 130 65 L 130 60 z M 120 20 L 120 25 L 125 25 L 125 20 z M 20 140 L 20 145 L 25 145 L 25 140 z M 110 100 L 110 105 L 115 105 L 115 100 z M 20 75 L 20 80 L 25 80 L 25 75 z M 135 125 L 135 130 L 140 130 L 140 125 z M 80 140 L 80 145 L 85 145 L 85 140 z M 105 140 L 105 145 L 110 145 L 110 140 z M 35 50 L 35 55 L 40 55 L 40 50 z M 30 30 L 30 35 L 35 35 L 35 30 z M 25 70 L 25 75 L 30 75 L 30 70 z M 60 50 L 60 55 L 65 55 L 65 50 z M 135 50 L 135 55 L 140 55 L 140 50 z M 130 70 L 130 75 L 135 75 L 135 70 z M 70 65 L 70 70 L 75 70 L 75 65 z M 65 55 L 65 60 L 70 60 L 70 55 z M 50 40 L 50 45 L 55 45 L 55 40 z M 75 40 L 75 45 L 80 45 L 80 40 z M 70 40 L 70 45 L 75 45 L 75 40 z M 65 120 L 65 125 L 70 125 L 70 120 z M 100 40 L 100 45 L 105 45 L 105 40 z M 90 115 L 90 120 L 95 120 L 95 115 z M 20 110 L 20 115 L 25 115 L 25 110 z M 95 70 L 95 75 L 100 75 L 100 70 z M 90 50 L 90 55 L 95 55 L 95 50 z M 100 135 L 100 140 L 105 140 L 105 135 z M 120 70 L 120 75 L 125 75 L 125 70 z M 110 50 L 110 55 L 115 55 L 115 50 z M 20 45 L 20 50 L 25 50 L 25 45 z M 140 30 L 140 35 L 145 35 L 145 30 z M 30 140 L 30 145 L 35 145 L 35 140 z M 25 20 L 25 25 L 30 25 L 30 20 z M 135 140 L 135 145 L 140 145 L 140 140 z M 130 20 L 130 25 L 135 25 L 135 20 z M 60 35 L 60 40 L 65 40 L 65 35 z M 40 50 L 40 55 L 45 55 L 45 50 z M 35 130 L 35 135 L 40 135 L 40 130 z M 65 30 L 65 35 L 70 35 L 70 30 z M 60 130 L 60 135 L 65 135 L 65 130 z M 50 25 L 50 30 L 55 30 L 55 25 z M 75 35 L 75 40 L 80 40 L 80 35 z M 90 80 L 90 85 L 95 85 L 95 80 z M 50 120 L 50 125 L 55 125 L 55 120 z M 80 40 L 80 45 L 85 45 L 85 40 z M 75 120 L 75 125 L 80 125 L 80 120 z M 70 120 L 70 125 L 75 125 L 75 120 z M 105 80 L 105 85 L 110 85 L 110 80 z M 100 120 L 100 125 L 105 125 L 105 120 z M 85 65 L 85 70 L 90 70 L 90 65 z M 125 105 L 125 110 L 130 110 L 130 105 z M 20 30 L 20 35 L 25 35 L 25 30 z M 135 110 L 135 115 L 140 115 L 140 110 z M 125 90 L 125 95 L 130 95 L 130 90 z M 35 95 L 35 100 L 40 100 L 40 95 z M 85 130 L 85 135 L 90 135 L 90 130 z M 60 85 L 60 90 L 65 90 L 65 85 z M 40 60 L 40 65 L 45 65 L 45 60 z M 35 20 L 35 25 L 40 25 L 40 20 z M 30 60 L 30 65 L 35 65 L 35 60 z M 60 20 L 60 25 L 65 25 L 65 20 z M 35 125 L 35 130 L 40 130 L 40 125 z M 60 115 L 60 120 L 65 120 L 65 115 z M 50 30 L 50 35 L 55 35 L 55 30 z M 40 130 L 40 135 L 45 135 L 45 130 z M 75 90 L 75 95 L 80 95 L 80 90 z M 55 75 L 55 80 L 60 80 L 60 75 z M 100 90 L 100 95 L 105 95 L 105 90 z M 140 130 L 140 135 L 145 135 L 145 130 z M 120 105 L 120 110 L 125 110 L 125 105 z M 115 75 L 115 80 L 120 80 L 120 75 z M 110 25 L 110 30 L 115 30 L 115 25 z M 105 95 L 105 100 L 110 100 L 110 95 z M 140 65 L 140 70 L 145 70 L 145 65 z M 95 80 L 95 85 L 100 85 L 100 80 z M 100 105 L 100 110 L 105 110 L 105 105 z M 80 120 L 80 125 L 85 125 L 85 120 z M 110 80 L 110 85 L 115 85 L 115 80 z M 35 70 L 35 75 L 40 75 L 40 70 z M 65 75 L 65 80 L 70 80 L 70 75 z M 135 95 L 135 100 L 140 100 L 140 95 z M 45 20 L 45 25 L 50 25 L 50 20 z M 40 140 L 40 145 L 45 145 L 45 140 z M 70 20 L 70 25 L 75 25 L 75 20 z M 65 140 L 65 145 L 70 145 L 70 140 z M 75 85 L 75 90 L 80 90 L 80 85 z M 115 125 L 115 130 L 120 130 L 120 125 z M 20 130 L 20 135 L 25 135 L 25 130 z M 100 75 L 100 80 L 105 80 L 105 75 z M 55 90 L 55 95 L 60 95 L 60 90 z M 85 30 L 85 35 L 90 35 L 90 30 z M 80 90 L 80 95 L 85 95 L 85 90 z M 115 50 L 115 55 L 120 55 L 120 50 z M 110 30 L 110 35 L 115 35 L 115 30 z M 50 110 L 50 115 L 55 115 L 55 110 z M 95 35 L 95 40 L 100 40 L 100 35 z M 140 50 L 140 55 L 145 55 L 145 50 z M 140 115 L 140 120 L 145 120 L 145 115 z M 120 130 L 120 135 L 125 135 L 125 130 z M 30 120 L 30 125 L 35 125 L 35 120 z M 135 120 L 135 125 L 140 125 L 140 120 z M 130 40 L 130 45 L 135 45 L 135 40 z M 125 40 L 125 45 L 130 45 L 130 40 z M 35 65 L 35 70 L 40 70 L 40 65 z M 30 35 L 30 40 L 35 40 L 35 35 z M 40 30 L 40 35 L 45 35 L 45 30 z M 50 45 L 50 50 L 55 50 L 55 45 z M 70 45 L 70 50 L 75 50 L 75 45 z M 95 140 L 95 145 L 100 145 L 100 140 z M 50 60 L 50 65 L 55 65 L 55 60 z M 45 100 L 45 105 L 50 105 L 50 100 z M 90 100 L 90 105 L 95 105 L 95 100 z M 115 100 L 115 105 L 120 105 L 120 100 z M 120 140 L 120 145 L 125 145 L 125 140 z M 20 115 L 20 120 L 25 120 L 25 115 z M 100 60 L 100 65 L 105 65 L 105 60 z M 140 100 L 140 105 L 145 105 L 145 100 z M 85 45 L 85 50 L 90 50 L 90 45 z M 80 115 L 80 120 L 85 120 L 85 115 z M 25 110 L 25 115 L 30 115 L 30 110 z M 20 50 L 20 55 L 25 55 L 25 50 z M 140 35 L 140 40 L 145 40 L 145 35 z M 130 110 L 130 115 L 135 115 L 135 110 z M 125 70 L 125 75 L 130 75 L 130 70 z M 120 50 L 120 55 L 125 55 L 125 50 z M 85 110 L 85 115 L 90 115 L 90 110 z M 110 110 L 110 115 L 115 115 L 115 110 z M 20 65 L 20 70 L 25 70 L 25 65 z M 35 40 L 35 45 L 40 45 L 40 40 z M 30 40 L 30 45 L 35 45 L 35 40 z M 65 80 L 65 85 L 70 85 L 70 80 z M 50 50 L 50 55 L 55 55 L 55 50 z M 45 50 L 45 55 L 50 55 L 50 50 z M 40 110 L 40 115 L 45 115 L 45 110 z M 70 50 L 70 55 L 75 55 L 75 50 z M 65 130 L 65 135 L 70 135 L 70 130 z M 100 30 L 100 35 L 105 35 L 105 30 z M 90 85 L 90 90 L 95 90 L 95 85 z M 50 125 L 50 130 L 55 130 L 55 125 z M 80 45 L 80 50 L 85 50 L 85 45 z M 115 95 L 115 100 L 120 100 L 120 95 z M 75 135 L 75 140 L 80 140 L 80 135 z M 20 100 L 20 105 L 25 105 L 25 100 z M 95 60 L 95 65 L 100 65 L 100 60 z M 140 85 L 140 90 L 145 90 L 145 85 z M 85 60 L 85 65 L 90 65 L 90 60 z M 100 125 L 100 130 L 105 130 L 105 125 z M 115 20 L 115 25 L 120 25 L 120 20 z M 50 140 L 50 145 L 55 145 L 55 140 z M 20 35 L 20 40 L 25 40 L 25 35 z M 140 20 L 140 25 L 145 25 L 145 20 z M 105 100 L 105 105 L 110 105 L 110 100 z M 125 85 L 125 90 L 130 90 L 130 85 z M 35 90 L 35 95 L 40 95 L 40 90 z M 75 140 L 75 145 L 80 145 L 80 140 z M 100 140 L 100 145 L 105 145 L 105 140 z M 60 90 L 60 95 L 65 95 L 65 90 z M 130 30 L 130 35 L 135 35 L 135 30 z M 40 65 L 40 70 L 45 70 L 45 65 z M 35 35 L 35 40 L 40 40 L 40 35 z M 65 95 L 65 100 L 70 100 L 70 95 z M 135 75 L 135 80 L 140 80 L 140 75 z M 45 80 L 45 85 L 50 85 L 50 80 z M 40 40 L 40 45 L 45 45 L 45 40 z M 35 120 L 35 125 L 40 125 L 40 120 z M 60 120 L 60 125 L 65 125 L 65 120 z M 50 35 L 50 40 L 55 40 L 55 35 z M 50 130 L 50 135 L 55 135 L 55 130 z M 75 25 L 75 30 L 80 30 L 80 25 z M 65 105 L 65 110 L 70 110 L 70 105 z M 55 70 L 55 75 L 60 75 L 60 70 z M 100 95 L 100 100 L 105 100 L 105 95 z M 95 110 L 95 115 L 100 115 L 100 110 z M 80 70 L 80 75 L 85 75 L 85 70 z M 115 70 L 115 75 L 120 75 L 120 70 z M 120 110 L 120 115 L 125 115 L 125 110 z M 105 90 L 105 95 L 110 95 L 110 90 z M 140 70 L 140 75 L 145 75 L 145 70 z M 95 95 L 95 100 L 100 100 L 100 95 z M 100 110 L 100 115 L 105 115 L 105 110 z M 130 125 L 130 130 L 135 130 L 135 125 z M 70 130 L 70 135 L 75 135 L 75 130 z M 110 85 L 110 90 L 115 90 L 115 85 z M 20 20 L 20 25 L 25 25 L 25 20 z M 135 100 L 135 105 L 140 105 L 140 100 z M 25 140 L 25 145 L 30 145 L 30 140 z M 125 20 L 125 25 L 130 25 L 130 20 z M 35 85 L 35 90 L 40 90 L 40 85 z M 25 85 L 25 90 L 30 90 L 30 85 z M 60 75 L 60 80 L 65 80 L 65 75 z M 110 140 L 110 145 L 115 145 L 115 140 z M 135 90 L 135 95 L 140 95 L 140 90 z M 45 95 L 45 100 L 50 100 L 50 95 z M 70 25 L 70 30 L 75 30 L 75 25 z M 60 105 L 60 110 L 65 110 L 65 105 z M 50 80 L 50 85 L 55 85 L 55 80 z M 40 120 L 40 125 L 45 125 L 45 120 z M 115 120 L 115 125 L 120 125 L 120 120 z M 20 135 L 20 140 L 25 140 L 25 135 z M 100 80 L 100 85 L 105 85 L 105 80 z M 90 75 L 90 80 L 95 80 L 95 75 z M 50 115 L 50 120 L 55 120 L 55 115 z M 80 95 L 80 100 L 85 100 L 85 95 z M 115 65 L 115 70 L 120 70 L 120 65 z M 110 35 L 110 40 L 115 40 L 115 35 z M 105 65 L 105 70 L 110 70 L 110 65 z M 75 105 L 75 110 L 80 110 L 80 105 z M 130 130 L 130 135 L 135 135 L 135 130 z M 85 90 L 85 95 L 90 95 L 90 90 z M 120 30 L 120 35 L 125 35 L 125 30 z M 30 125 L 30 130 L 35 130 L 35 125 z M 110 90 L 110 95 L 115 95 L 115 90 z M 125 130 L 125 135 L 130 135 L 130 130 z M 135 135 L 135 140 L 140 140 L 140 135 z M 125 35 L 125 40 L 130 40 L 130 35 z M 30 20 L 30 25 L 35 25 L 35 20 z M 60 60 L 60 65 L 65 65 L 65 60 z M 135 20 L 135 25 L 140 25 L 140 20 z M 40 35 L 40 40 L 45 40 L 45 35 z M 135 85 L 135 90 L 140 90 L 140 85 z" id="qr-path" style="fill:#000000;fill-opacity:1;fill-rule:nonzero;stroke:none" /></svg>